<mxfile host="Electron" modified="2024-02-16T18:41:09.498Z" agent="Mozilla/5.0 (Windows NT 10.0; Win64; x64) AppleWebKit/537.36 (KHTML, like Gecko) draw.io/23.0.2 Chrome/120.0.6099.109 Electron/28.1.0 Safari/537.36" etag="Sa5PAbcC6CYfM1lkXI1d" version="23.0.2" type="device">
  <diagram name="Page-1" id="6wSpwQwoSKfwxd83AG3C">
    <mxGraphModel dx="439" dy="1519" grid="1" gridSize="10" guides="1" tooltips="1" connect="1" arrows="1" fold="1" page="1" pageScale="1" pageWidth="827" pageHeight="1169" math="1" shadow="0">
      <root>
        <mxCell id="0" />
        <mxCell id="1" parent="0" />
        <mxCell id="jRBOq5QcbqK6FYQ33SfS-26" value="" style="rounded=0;whiteSpace=wrap;html=1;fillColor=#f8cecc;strokeColor=none;fontFamily=monospace;" vertex="1" parent="1">
          <mxGeometry x="240" y="-870" width="40" height="20" as="geometry" />
        </mxCell>
        <mxCell id="jRBOq5QcbqK6FYQ33SfS-32" value="" style="endArrow=none;html=1;rounded=0;endFill=0;dashed=1;strokeColor=#808080;fontFamily=monospace;" edge="1" parent="1">
          <mxGeometry width="50" height="50" relative="1" as="geometry">
            <mxPoint x="239.99999999999997" y="-830" as="sourcePoint" />
            <mxPoint x="240" y="-940" as="targetPoint" />
          </mxGeometry>
        </mxCell>
        <mxCell id="jRBOq5QcbqK6FYQ33SfS-31" value="" style="endArrow=none;html=1;rounded=0;endFill=0;dashed=1;strokeColor=#808080;fontFamily=monospace;" edge="1" parent="1">
          <mxGeometry width="50" height="50" relative="1" as="geometry">
            <mxPoint x="279.52" y="-830" as="sourcePoint" />
            <mxPoint x="280" y="-940" as="targetPoint" />
          </mxGeometry>
        </mxCell>
        <mxCell id="jRBOq5QcbqK6FYQ33SfS-9" value="" style="endArrow=none;html=1;rounded=0;endFill=0;dashed=1;strokeColor=#808080;fontFamily=monospace;" edge="1" parent="1">
          <mxGeometry width="50" height="50" relative="1" as="geometry">
            <mxPoint x="320" y="-830" as="sourcePoint" />
            <mxPoint x="320" y="-940" as="targetPoint" />
          </mxGeometry>
        </mxCell>
        <mxCell id="jRBOq5QcbqK6FYQ33SfS-11" value="" style="endArrow=none;html=1;rounded=0;endFill=0;strokeColor=#808080;fontFamily=monospace;" edge="1" parent="1">
          <mxGeometry width="50" height="50" relative="1" as="geometry">
            <mxPoint x="160" y="-830" as="sourcePoint" />
            <mxPoint x="160" y="-940" as="targetPoint" />
          </mxGeometry>
        </mxCell>
        <mxCell id="jRBOq5QcbqK6FYQ33SfS-12" value="" style="endArrow=classic;html=1;rounded=0;fontFamily=monospace;" edge="1" parent="1">
          <mxGeometry width="50" height="50" relative="1" as="geometry">
            <mxPoint x="120" y="-840" as="sourcePoint" />
            <mxPoint x="360" y="-840" as="targetPoint" />
          </mxGeometry>
        </mxCell>
        <mxCell id="jRBOq5QcbqK6FYQ33SfS-13" value="Frequency" style="text;html=1;strokeColor=none;fillColor=none;align=center;verticalAlign=middle;whiteSpace=wrap;rounded=0;fontFamily=monospace;" vertex="1" parent="1">
          <mxGeometry x="360" y="-850" width="80" height="20" as="geometry" />
        </mxCell>
        <mxCell id="jRBOq5QcbqK6FYQ33SfS-15" value="$$\frac{1}{2}f_s$$" style="text;html=1;strokeColor=none;fillColor=none;align=center;verticalAlign=middle;whiteSpace=wrap;rounded=0;fontFamily=monospace;" vertex="1" parent="1">
          <mxGeometry x="220" y="-830" width="40" height="40" as="geometry" />
        </mxCell>
        <mxCell id="jRBOq5QcbqK6FYQ33SfS-16" value="$$0$$" style="text;html=1;strokeColor=none;fillColor=none;align=center;verticalAlign=middle;whiteSpace=wrap;rounded=0;fontFamily=monospace;" vertex="1" parent="1">
          <mxGeometry x="140" y="-830" width="40" height="40" as="geometry" />
        </mxCell>
        <mxCell id="jRBOq5QcbqK6FYQ33SfS-17" value="$$f_s$$" style="text;html=1;strokeColor=none;fillColor=none;align=center;verticalAlign=middle;whiteSpace=wrap;rounded=0;fontFamily=monospace;" vertex="1" parent="1">
          <mxGeometry x="300" y="-830" width="40" height="40" as="geometry" />
        </mxCell>
        <mxCell id="jRBOq5QcbqK6FYQ33SfS-24" value="Input" style="rounded=0;whiteSpace=wrap;html=1;fontFamily=monospace;" vertex="1" parent="1">
          <mxGeometry x="160" y="-930" width="80" height="20" as="geometry" />
        </mxCell>
        <mxCell id="jRBOq5QcbqK6FYQ33SfS-25" value="Input + USB" style="rounded=0;whiteSpace=wrap;html=1;fontFamily=monospace;" vertex="1" parent="1">
          <mxGeometry x="160" y="-900" width="160" height="20" as="geometry" />
        </mxCell>
        <mxCell id="jRBOq5QcbqK6FYQ33SfS-27" value="" style="rounded=0;whiteSpace=wrap;html=1;fillColor=#f8cecc;strokeColor=none;fillStyle=auto;fontFamily=monospace;" vertex="1" parent="1">
          <mxGeometry x="280" y="-900" width="40" height="20" as="geometry" />
        </mxCell>
        <mxCell id="jRBOq5QcbqK6FYQ33SfS-30" value="$$\frac{3}{4}f_s$$" style="text;html=1;strokeColor=none;fillColor=none;align=center;verticalAlign=middle;whiteSpace=wrap;rounded=0;fontFamily=monospace;" vertex="1" parent="1">
          <mxGeometry x="260" y="-830" width="40" height="40" as="geometry" />
        </mxCell>
        <mxCell id="jRBOq5QcbqK6FYQ33SfS-33" value="" style="endArrow=none;html=1;rounded=0;fillColor=#f8cecc;strokeColor=#b85450;fontFamily=monospace;" edge="1" parent="1">
          <mxGeometry width="50" height="50" relative="1" as="geometry">
            <mxPoint x="300" y="-890" as="sourcePoint" />
            <mxPoint x="360" y="-910" as="targetPoint" />
          </mxGeometry>
        </mxCell>
        <mxCell id="jRBOq5QcbqK6FYQ33SfS-34" value="" style="endArrow=none;html=1;rounded=0;fillColor=#f8cecc;strokeColor=#b85450;fontFamily=monospace;" edge="1" parent="1">
          <mxGeometry width="50" height="50" relative="1" as="geometry">
            <mxPoint x="260" y="-857.2727272727273" as="sourcePoint" />
            <mxPoint x="360" y="-910" as="targetPoint" />
          </mxGeometry>
        </mxCell>
        <mxCell id="jRBOq5QcbqK6FYQ33SfS-35" value="Aliasing" style="text;html=1;strokeColor=none;fillColor=none;align=center;verticalAlign=middle;whiteSpace=wrap;rounded=0;fontFamily=monospace;" vertex="1" parent="1">
          <mxGeometry x="360" y="-930" width="80" height="30" as="geometry" />
        </mxCell>
      </root>
    </mxGraphModel>
  </diagram>
</mxfile>
